<mxfile host="app.diagrams.net" modified="2023-08-09T15:17:44.065Z" agent="Mozilla/5.0 (Windows NT 10.0; Win64; x64) AppleWebKit/537.36 (KHTML, like Gecko) Chrome/115.0.0.0 Safari/537.36 Edg/115.0.1901.188" etag="WcSW9kk0ds2VTLzrhTHi" version="21.6.7" type="github">
  <diagram id="C5RBs43oDa-KdzZeNtuy" name="Page-1">
    <mxGraphModel dx="1001" dy="483" grid="1" gridSize="10" guides="1" tooltips="1" connect="1" arrows="1" fold="1" page="1" pageScale="1" pageWidth="827" pageHeight="1169" math="0" shadow="0">
      <root>
        <mxCell id="WIyWlLk6GJQsqaUBKTNV-0" />
        <mxCell id="WIyWlLk6GJQsqaUBKTNV-1" parent="WIyWlLk6GJQsqaUBKTNV-0" />
        <mxCell id="r62edw3LymITYhODbOyO-1" value="BIOPSY / &lt;br&gt;RESECTION" style="edgeStyle=orthogonalEdgeStyle;rounded=1;orthogonalLoop=1;jettySize=auto;html=1;exitX=0;exitY=0.5;exitDx=0;exitDy=0;entryX=1;entryY=0.5;entryDx=0;entryDy=0;endArrow=none;fontSize=13;startArrow=classic;startFill=1;endFill=0;fontStyle=1;strokeWidth=2;entryPerimeter=0;" parent="WIyWlLk6GJQsqaUBKTNV-1" source="r62edw3LymITYhODbOyO-2" target="r62edw3LymITYhODbOyO-19" edge="1">
          <mxGeometry relative="1" as="geometry">
            <mxPoint x="360" y="110" as="sourcePoint" />
            <mxPoint x="280" y="100" as="targetPoint" />
          </mxGeometry>
        </mxCell>
        <mxCell id="WIyWlLk6GJQsqaUBKTNV-8" value="No" style="rounded=1;html=1;jettySize=auto;orthogonalLoop=1;fontSize=13;endArrow=none;endFill=0;endSize=8;strokeWidth=2;shadow=0;labelBackgroundColor=default;edgeStyle=orthogonalEdgeStyle;startArrow=classic;startFill=1;fontStyle=1;entryX=0.5;entryY=1;entryDx=0;entryDy=0;entryPerimeter=0;" parent="WIyWlLk6GJQsqaUBKTNV-1" source="WIyWlLk6GJQsqaUBKTNV-11" target="r62edw3LymITYhODbOyO-4" edge="1">
          <mxGeometry x="0.3333" y="20" relative="1" as="geometry">
            <mxPoint as="offset" />
          </mxGeometry>
        </mxCell>
        <mxCell id="r62edw3LymITYhODbOyO-14" style="edgeStyle=orthogonalEdgeStyle;rounded=1;orthogonalLoop=1;jettySize=auto;html=1;endArrow=none;fontSize=13;startArrow=classic;startFill=1;endFill=0;fontStyle=1;strokeWidth=2;exitX=1;exitY=0.5;exitDx=0;exitDy=0;" parent="WIyWlLk6GJQsqaUBKTNV-1" source="r62edw3LymITYhODbOyO-10" target="WIyWlLk6GJQsqaUBKTNV-11" edge="1">
          <mxGeometry relative="1" as="geometry" />
        </mxCell>
        <mxCell id="WIyWlLk6GJQsqaUBKTNV-11" value="Complete Pathology analysis" style="rounded=1;whiteSpace=wrap;html=1;fontSize=12;glass=0;strokeWidth=2;shadow=0;arcSize=14;" parent="WIyWlLk6GJQsqaUBKTNV-1" vertex="1">
          <mxGeometry x="340" y="430" width="120" height="40" as="geometry" />
        </mxCell>
        <mxCell id="r62edw3LymITYhODbOyO-5" style="edgeStyle=orthogonalEdgeStyle;rounded=1;orthogonalLoop=1;jettySize=auto;html=1;endArrow=none;fontSize=13;endFill=0;endSize=8;strokeWidth=2;shadow=0;startArrow=classic;startFill=1;fontStyle=1;exitX=0;exitY=0.5;exitDx=0;exitDy=0;exitPerimeter=0;" parent="WIyWlLk6GJQsqaUBKTNV-1" source="r62edw3LymITYhODbOyO-4" target="r62edw3LymITYhODbOyO-2" edge="1">
          <mxGeometry relative="1" as="geometry" />
        </mxCell>
        <mxCell id="r62edw3LymITYhODbOyO-2" value="Pathology lab analyses sample" style="rounded=1;whiteSpace=wrap;html=1;absoluteArcSize=1;arcSize=14;strokeWidth=2;" parent="WIyWlLk6GJQsqaUBKTNV-1" vertex="1">
          <mxGeometry x="210" y="260" width="100" height="100" as="geometry" />
        </mxCell>
        <mxCell id="r62edw3LymITYhODbOyO-4" value="Suitable for genomic analysis?" style="strokeWidth=2;html=1;shape=mxgraph.flowchart.decision;whiteSpace=wrap;rounded=1;arcSize=14;" parent="WIyWlLk6GJQsqaUBKTNV-1" vertex="1">
          <mxGeometry x="350" y="260" width="100" height="100" as="geometry" />
        </mxCell>
        <mxCell id="r62edw3LymITYhODbOyO-6" value="Yes" style="edgeStyle=orthogonalEdgeStyle;rounded=1;html=1;jettySize=auto;orthogonalLoop=1;fontSize=13;endArrow=none;endFill=0;endSize=8;strokeWidth=2;shadow=0;labelBackgroundColor=default;exitX=0;exitY=0.5;exitDx=0;exitDy=0;entryX=1;entryY=0.5;entryDx=0;entryDy=0;startArrow=classic;startFill=1;fontStyle=1;entryPerimeter=0;" parent="WIyWlLk6GJQsqaUBKTNV-1" source="r62edw3LymITYhODbOyO-7" target="r62edw3LymITYhODbOyO-4" edge="1">
          <mxGeometry y="10" relative="1" as="geometry">
            <mxPoint as="offset" />
            <mxPoint x="740" y="331" as="sourcePoint" />
            <mxPoint x="690" y="330" as="targetPoint" />
            <Array as="points" />
          </mxGeometry>
        </mxCell>
        <mxCell id="r62edw3LymITYhODbOyO-9" style="edgeStyle=orthogonalEdgeStyle;rounded=1;orthogonalLoop=1;jettySize=auto;html=1;entryX=0.5;entryY=0;entryDx=0;entryDy=0;entryPerimeter=0;" parent="WIyWlLk6GJQsqaUBKTNV-1" source="r62edw3LymITYhODbOyO-7" target="r62edw3LymITYhODbOyO-8" edge="1">
          <mxGeometry relative="1" as="geometry" />
        </mxCell>
        <mxCell id="r62edw3LymITYhODbOyO-7" value="Molecular pathology analysis" style="rounded=1;whiteSpace=wrap;html=1;absoluteArcSize=1;arcSize=14;strokeWidth=2;" parent="WIyWlLk6GJQsqaUBKTNV-1" vertex="1">
          <mxGeometry x="500" y="260" width="100" height="100" as="geometry" />
        </mxCell>
        <mxCell id="r62edw3LymITYhODbOyO-15" value="Yes / No" style="edgeStyle=orthogonalEdgeStyle;rounded=1;orthogonalLoop=1;jettySize=auto;html=1;entryX=0.5;entryY=1;entryDx=0;entryDy=0;exitX=0.5;exitY=1;exitDx=0;exitDy=0;endArrow=none;fontSize=13;startArrow=classic;startFill=1;endFill=0;fontStyle=1;strokeWidth=2;entryPerimeter=0;" parent="WIyWlLk6GJQsqaUBKTNV-1" source="r62edw3LymITYhODbOyO-10" target="r62edw3LymITYhODbOyO-8" edge="1">
          <mxGeometry relative="1" as="geometry">
            <Array as="points">
              <mxPoint x="260" y="580" />
              <mxPoint x="550" y="580" />
            </Array>
          </mxGeometry>
        </mxCell>
        <mxCell id="r62edw3LymITYhODbOyO-45" value="YES" style="edgeStyle=orthogonalEdgeStyle;shape=connector;rounded=1;orthogonalLoop=1;jettySize=auto;html=1;labelBackgroundColor=default;strokeColor=#00CC00;fontFamily=Helvetica;fontSize=14;fontColor=default;endArrow=classic;strokeWidth=3;fontStyle=1" parent="WIyWlLk6GJQsqaUBKTNV-1" source="r62edw3LymITYhODbOyO-8" target="r62edw3LymITYhODbOyO-44" edge="1">
          <mxGeometry relative="1" as="geometry" />
        </mxCell>
        <mxCell id="r62edw3LymITYhODbOyO-8" value="Potential &lt;br&gt;germline &lt;br&gt;viariant &lt;br&gt;detected?" style="strokeWidth=2;html=1;shape=mxgraph.flowchart.decision;whiteSpace=wrap;rounded=1;arcSize=14;" parent="WIyWlLk6GJQsqaUBKTNV-1" vertex="1">
          <mxGeometry x="500" y="400" width="100" height="100" as="geometry" />
        </mxCell>
        <mxCell id="r62edw3LymITYhODbOyO-13" style="edgeStyle=orthogonalEdgeStyle;rounded=1;orthogonalLoop=1;jettySize=auto;html=1;endArrow=none;fontSize=13;startArrow=classic;startFill=1;endFill=0;fontStyle=1;strokeWidth=2;exitX=1;exitY=0.5;exitDx=0;exitDy=0;" parent="WIyWlLk6GJQsqaUBKTNV-1" source="r62edw3LymITYhODbOyO-11" target="r62edw3LymITYhODbOyO-10" edge="1">
          <mxGeometry relative="1" as="geometry" />
        </mxCell>
        <mxCell id="r62edw3LymITYhODbOyO-10" value="Integrated &lt;br&gt;Report &lt;br&gt;generated" style="rounded=1;whiteSpace=wrap;html=1;absoluteArcSize=1;arcSize=14;strokeWidth=2;" parent="WIyWlLk6GJQsqaUBKTNV-1" vertex="1">
          <mxGeometry x="210" y="400" width="100" height="100" as="geometry" />
        </mxCell>
        <mxCell id="r62edw3LymITYhODbOyO-52" style="edgeStyle=orthogonalEdgeStyle;shape=connector;rounded=1;orthogonalLoop=1;jettySize=auto;html=1;entryX=0.25;entryY=1;entryDx=0;entryDy=0;labelBackgroundColor=default;strokeColor=default;fontFamily=Helvetica;fontSize=13;fontColor=default;endArrow=none;exitX=0;exitY=0.5;exitDx=0;exitDy=0;startArrow=classic;startFill=1;endFill=0;fontStyle=1;strokeWidth=2;exitPerimeter=0;" parent="WIyWlLk6GJQsqaUBKTNV-1" source="r62edw3LymITYhODbOyO-24" target="r62edw3LymITYhODbOyO-11" edge="1">
          <mxGeometry relative="1" as="geometry" />
        </mxCell>
        <mxCell id="r62edw3LymITYhODbOyO-11" value="MDT decide on treatment, management etc" style="rounded=1;whiteSpace=wrap;html=1;absoluteArcSize=1;arcSize=14;strokeWidth=2;" parent="WIyWlLk6GJQsqaUBKTNV-1" vertex="1">
          <mxGeometry x="10" y="400" width="100" height="100" as="geometry" />
        </mxCell>
        <mxCell id="r62edw3LymITYhODbOyO-19" value="Patient &lt;br style=&quot;font-size: 14px;&quot;&gt;diagnosed with &lt;br style=&quot;font-size: 14px;&quot;&gt;cancer" style="strokeWidth=2;html=1;shape=mxgraph.flowchart.start_2;whiteSpace=wrap;fillColor=#fff2cc;strokeColor=#d6b656;shadow=1;fontSize=14;fontStyle=1" parent="WIyWlLk6GJQsqaUBKTNV-1" vertex="1">
          <mxGeometry x="10" y="170" width="100" height="100" as="geometry" />
        </mxCell>
        <mxCell id="r62edw3LymITYhODbOyO-23" value="" style="edgeStyle=orthogonalEdgeStyle;rounded=1;orthogonalLoop=1;jettySize=auto;html=1;endArrow=none;fontSize=13;startArrow=classic;startFill=1;endFill=0;fontStyle=1;strokeWidth=2;" parent="WIyWlLk6GJQsqaUBKTNV-1" source="r62edw3LymITYhODbOyO-22" target="r62edw3LymITYhODbOyO-21" edge="1">
          <mxGeometry relative="1" as="geometry" />
        </mxCell>
        <mxCell id="r62edw3LymITYhODbOyO-21" value="GP / Surgeon / Oncologist / MDT consider family history" style="strokeWidth=2;html=1;shape=mxgraph.flowchart.start_2;whiteSpace=wrap;fillColor=#fff2cc;strokeColor=#d6b656;shadow=1;" parent="WIyWlLk6GJQsqaUBKTNV-1" vertex="1">
          <mxGeometry x="60" y="560" width="100" height="100" as="geometry" />
        </mxCell>
        <mxCell id="r62edw3LymITYhODbOyO-25" value="NO" style="edgeStyle=orthogonalEdgeStyle;rounded=1;orthogonalLoop=1;jettySize=auto;html=1;endArrow=none;fontSize=13;startArrow=classic;startFill=1;endFill=0;fontStyle=1;strokeWidth=2;exitX=0.25;exitY=0;exitDx=0;exitDy=0;" parent="WIyWlLk6GJQsqaUBKTNV-1" source="r62edw3LymITYhODbOyO-32" target="r62edw3LymITYhODbOyO-22" edge="1">
          <mxGeometry relative="1" as="geometry" />
        </mxCell>
        <mxCell id="r62edw3LymITYhODbOyO-27" value="" style="edgeStyle=orthogonalEdgeStyle;rounded=0;orthogonalLoop=1;jettySize=auto;html=1;" parent="WIyWlLk6GJQsqaUBKTNV-1" source="r62edw3LymITYhODbOyO-22" edge="1">
          <mxGeometry relative="1" as="geometry">
            <mxPoint x="210" y="740" as="targetPoint" />
          </mxGeometry>
        </mxCell>
        <mxCell id="r62edw3LymITYhODbOyO-22" value="Family history significant?" style="rhombus;whiteSpace=wrap;html=1;strokeWidth=2;" parent="WIyWlLk6GJQsqaUBKTNV-1" vertex="1">
          <mxGeometry x="70" y="700" width="80" height="80" as="geometry" />
        </mxCell>
        <mxCell id="r62edw3LymITYhODbOyO-24" value="Process ends" style="strokeWidth=2;html=1;shape=mxgraph.flowchart.terminator;whiteSpace=wrap;fillColor=#B9E0A5;" parent="WIyWlLk6GJQsqaUBKTNV-1" vertex="1">
          <mxGeometry x="60" y="980" width="100" height="60" as="geometry" />
        </mxCell>
        <mxCell id="r62edw3LymITYhODbOyO-29" value="YES - refer&lt;br style=&quot;font-size: 13px;&quot;&gt;to Genetics" style="edgeStyle=orthogonalEdgeStyle;rounded=0;orthogonalLoop=1;jettySize=auto;html=1;startArrow=classic;startFill=1;endArrow=none;endFill=0;fontSize=13;fontStyle=1;strokeWidth=2;" parent="WIyWlLk6GJQsqaUBKTNV-1" source="r62edw3LymITYhODbOyO-28" target="r62edw3LymITYhODbOyO-22" edge="1">
          <mxGeometry relative="1" as="geometry" />
        </mxCell>
        <mxCell id="r62edw3LymITYhODbOyO-31" value="" style="edgeStyle=orthogonalEdgeStyle;rounded=0;orthogonalLoop=1;jettySize=auto;html=1;endArrow=none;fontSize=13;startArrow=classic;startFill=1;endFill=0;fontStyle=1;strokeWidth=2;" parent="WIyWlLk6GJQsqaUBKTNV-1" source="r62edw3LymITYhODbOyO-30" target="r62edw3LymITYhODbOyO-28" edge="1">
          <mxGeometry relative="1" as="geometry" />
        </mxCell>
        <mxCell id="r62edw3LymITYhODbOyO-28" value="Genetics team assess family history &lt;b&gt;&lt;font color=&quot;#009900&quot;&gt;and negative/positive somatic/germline data&lt;/font&gt;&lt;/b&gt;" style="rounded=1;whiteSpace=wrap;html=1;absoluteArcSize=1;arcSize=14;strokeWidth=2;" parent="WIyWlLk6GJQsqaUBKTNV-1" vertex="1">
          <mxGeometry x="250" y="690" width="100" height="100" as="geometry" />
        </mxCell>
        <mxCell id="r62edw3LymITYhODbOyO-33" value="NO" style="edgeStyle=orthogonalEdgeStyle;rounded=1;orthogonalLoop=1;jettySize=auto;html=1;endArrow=none;fontSize=13;startArrow=classic;startFill=1;endFill=0;fontStyle=1;strokeWidth=2;entryX=0.5;entryY=1;entryDx=0;entryDy=0;exitX=1;exitY=0.25;exitDx=0;exitDy=0;" parent="WIyWlLk6GJQsqaUBKTNV-1" source="r62edw3LymITYhODbOyO-32" target="r62edw3LymITYhODbOyO-30" edge="1">
          <mxGeometry relative="1" as="geometry" />
        </mxCell>
        <mxCell id="r62edw3LymITYhODbOyO-37" value="YES" style="edgeStyle=orthogonalEdgeStyle;rounded=0;orthogonalLoop=1;jettySize=auto;html=1;endArrow=none;fontSize=13;startArrow=classic;startFill=1;endFill=0;fontStyle=1;strokeWidth=2;" parent="WIyWlLk6GJQsqaUBKTNV-1" source="r62edw3LymITYhODbOyO-36" target="r62edw3LymITYhODbOyO-30" edge="1">
          <mxGeometry relative="1" as="geometry" />
        </mxCell>
        <mxCell id="r62edw3LymITYhODbOyO-30" value="Meet criteria for genetic testing?" style="rhombus;whiteSpace=wrap;html=1;rounded=1;arcSize=14;strokeWidth=2;" parent="WIyWlLk6GJQsqaUBKTNV-1" vertex="1">
          <mxGeometry x="380" y="700" width="80" height="80" as="geometry" />
        </mxCell>
        <mxCell id="r62edw3LymITYhODbOyO-34" style="edgeStyle=orthogonalEdgeStyle;orthogonalLoop=1;jettySize=auto;html=1;rounded=1;endArrow=none;fontSize=13;startArrow=classic;startFill=1;endFill=0;fontStyle=1;strokeWidth=2;exitX=0.5;exitY=0;exitDx=0;exitDy=0;exitPerimeter=0;" parent="WIyWlLk6GJQsqaUBKTNV-1" source="r62edw3LymITYhODbOyO-24" target="r62edw3LymITYhODbOyO-32" edge="1">
          <mxGeometry relative="1" as="geometry" />
        </mxCell>
        <mxCell id="r62edw3LymITYhODbOyO-32" value="Recommendations for personal risk &amp;amp; family surveillance" style="whiteSpace=wrap;html=1;rounded=1;arcSize=14;strokeWidth=2;" parent="WIyWlLk6GJQsqaUBKTNV-1" vertex="1">
          <mxGeometry x="80" y="840" width="120" height="60" as="geometry" />
        </mxCell>
        <mxCell id="r62edw3LymITYhODbOyO-39" value="" style="edgeStyle=orthogonalEdgeStyle;rounded=1;orthogonalLoop=1;jettySize=auto;html=1;endArrow=none;fontSize=13;startArrow=classic;startFill=1;endFill=0;fontStyle=1;strokeWidth=2;" parent="WIyWlLk6GJQsqaUBKTNV-1" source="r62edw3LymITYhODbOyO-38" target="r62edw3LymITYhODbOyO-36" edge="1">
          <mxGeometry relative="1" as="geometry" />
        </mxCell>
        <mxCell id="r62edw3LymITYhODbOyO-36" value="Germline cancer panel testing" style="whiteSpace=wrap;html=1;rounded=1;arcSize=14;strokeWidth=2;" parent="WIyWlLk6GJQsqaUBKTNV-1" vertex="1">
          <mxGeometry x="510" y="710" width="120" height="60" as="geometry" />
        </mxCell>
        <mxCell id="r62edw3LymITYhODbOyO-40" value="NO" style="edgeStyle=orthogonalEdgeStyle;rounded=0;orthogonalLoop=1;jettySize=auto;html=1;endArrow=none;fontSize=13;startArrow=classic;startFill=1;endFill=0;fontStyle=1;strokeWidth=2;exitX=1;exitY=0.5;exitDx=0;exitDy=0;" parent="WIyWlLk6GJQsqaUBKTNV-1" source="r62edw3LymITYhODbOyO-32" target="r62edw3LymITYhODbOyO-38" edge="1">
          <mxGeometry relative="1" as="geometry">
            <mxPoint x="610" y="860" as="sourcePoint" />
          </mxGeometry>
        </mxCell>
        <mxCell id="r62edw3LymITYhODbOyO-42" value="YES" style="edgeStyle=orthogonalEdgeStyle;rounded=1;orthogonalLoop=1;jettySize=auto;html=1;exitX=1;exitY=0.25;exitDx=0;exitDy=0;entryX=1;entryY=0.5;entryDx=0;entryDy=0;endArrow=none;fontSize=13;startArrow=classic;startFill=1;endFill=0;fontStyle=1;strokeWidth=2;" parent="WIyWlLk6GJQsqaUBKTNV-1" source="r62edw3LymITYhODbOyO-41" target="r62edw3LymITYhODbOyO-38" edge="1">
          <mxGeometry relative="1" as="geometry" />
        </mxCell>
        <mxCell id="r62edw3LymITYhODbOyO-38" value="Germline&lt;br&gt;variant&lt;br&gt;detected?" style="rhombus;whiteSpace=wrap;html=1;rounded=1;arcSize=14;strokeWidth=2;" parent="WIyWlLk6GJQsqaUBKTNV-1" vertex="1">
          <mxGeometry x="530" y="830" width="80" height="80" as="geometry" />
        </mxCell>
        <mxCell id="r62edw3LymITYhODbOyO-43" style="edgeStyle=orthogonalEdgeStyle;shape=connector;rounded=1;orthogonalLoop=1;jettySize=auto;html=1;labelBackgroundColor=default;strokeColor=default;fontFamily=Helvetica;fontSize=13;fontColor=default;endArrow=none;startArrow=classic;startFill=1;endFill=0;fontStyle=1;strokeWidth=2;exitX=1;exitY=0.5;exitDx=0;exitDy=0;exitPerimeter=0;" parent="WIyWlLk6GJQsqaUBKTNV-1" source="r62edw3LymITYhODbOyO-24" target="r62edw3LymITYhODbOyO-41" edge="1">
          <mxGeometry relative="1" as="geometry" />
        </mxCell>
        <mxCell id="r62edw3LymITYhODbOyO-41" value="Genetic counselling&lt;br&gt;Targeted surveillance&lt;br&gt;Cascade testing in family" style="whiteSpace=wrap;html=1;rounded=1;arcSize=14;strokeWidth=2;" parent="WIyWlLk6GJQsqaUBKTNV-1" vertex="1">
          <mxGeometry x="268" y="980" width="304" height="60" as="geometry" />
        </mxCell>
        <mxCell id="r62edw3LymITYhODbOyO-47" value="" style="edgeStyle=orthogonalEdgeStyle;shape=connector;rounded=1;orthogonalLoop=1;jettySize=auto;html=1;labelBackgroundColor=default;strokeColor=#00CC00;fontFamily=Helvetica;fontSize=11;fontColor=default;endArrow=classic;strokeWidth=3;" parent="WIyWlLk6GJQsqaUBKTNV-1" source="r62edw3LymITYhODbOyO-44" target="r62edw3LymITYhODbOyO-46" edge="1">
          <mxGeometry relative="1" as="geometry" />
        </mxCell>
        <mxCell id="r62edw3LymITYhODbOyO-44" value="Confirmatory testing in Germline lab" style="whiteSpace=wrap;html=1;strokeWidth=2;perimeterSpacing=1;rounded=1;fontSize=11;strokeColor=#00CC00;arcSize=12;" parent="WIyWlLk6GJQsqaUBKTNV-1" vertex="1">
          <mxGeometry x="680" y="640" width="120" height="60" as="geometry" />
        </mxCell>
        <mxCell id="r62edw3LymITYhODbOyO-48" value="NO" style="edgeStyle=orthogonalEdgeStyle;shape=connector;rounded=1;orthogonalLoop=1;jettySize=auto;html=1;labelBackgroundColor=default;strokeColor=#00CC00;fontFamily=Helvetica;fontSize=14;fontColor=default;endArrow=classic;strokeWidth=3;entryX=0.25;entryY=1;entryDx=0;entryDy=0;fontStyle=1;" parent="WIyWlLk6GJQsqaUBKTNV-1" source="r62edw3LymITYhODbOyO-46" target="r62edw3LymITYhODbOyO-10" edge="1">
          <mxGeometry relative="1" as="geometry">
            <mxPoint x="290" y="520" as="targetPoint" />
            <Array as="points">
              <mxPoint x="660" y="810" />
              <mxPoint x="660" y="640" />
              <mxPoint x="235" y="640" />
            </Array>
          </mxGeometry>
        </mxCell>
        <mxCell id="r62edw3LymITYhODbOyO-50" value="YES" style="edgeStyle=orthogonalEdgeStyle;shape=connector;rounded=1;orthogonalLoop=1;jettySize=auto;html=1;labelBackgroundColor=default;strokeColor=#00CC00;fontFamily=Helvetica;fontSize=14;fontColor=default;endArrow=classic;strokeWidth=3;fontStyle=1;entryX=0.408;entryY=-0.029;entryDx=0;entryDy=0;entryPerimeter=0;" parent="WIyWlLk6GJQsqaUBKTNV-1" source="r62edw3LymITYhODbOyO-46" target="6mQX39m_VKgBp-ftAS3a-0" edge="1">
          <mxGeometry relative="1" as="geometry" />
        </mxCell>
        <mxCell id="r62edw3LymITYhODbOyO-46" value="Germline pathogenic variant confirmed?" style="rhombus;whiteSpace=wrap;html=1;strokeWidth=2;rounded=1;fontSize=11;strokeColor=#00CC00;arcSize=12;" parent="WIyWlLk6GJQsqaUBKTNV-1" vertex="1">
          <mxGeometry x="700" y="770" width="80" height="80" as="geometry" />
        </mxCell>
        <mxCell id="r62edw3LymITYhODbOyO-51" style="edgeStyle=orthogonalEdgeStyle;shape=connector;rounded=1;orthogonalLoop=1;jettySize=auto;html=1;entryX=1;entryY=0.5;entryDx=0;entryDy=0;labelBackgroundColor=default;strokeColor=#00CC00;fontFamily=Helvetica;fontSize=11;fontColor=default;endArrow=classic;strokeWidth=3;" parent="WIyWlLk6GJQsqaUBKTNV-1" source="r62edw3LymITYhODbOyO-49" target="r62edw3LymITYhODbOyO-41" edge="1">
          <mxGeometry relative="1" as="geometry" />
        </mxCell>
        <mxCell id="r62edw3LymITYhODbOyO-49" value="Genetic Counsellor liaises with MDT, contact patient / family" style="whiteSpace=wrap;html=1;strokeWidth=2;rounded=1;fontSize=11;strokeColor=#00CC00;arcSize=12;" parent="WIyWlLk6GJQsqaUBKTNV-1" vertex="1">
          <mxGeometry x="680" y="980" width="140" height="60" as="geometry" />
        </mxCell>
        <mxCell id="r62edw3LymITYhODbOyO-61" value="Green lines, symbols &amp;amp; boxes represent the &lt;b style=&quot;font-size: 19px;&quot;&gt;new process&lt;/b&gt;" style="rounded=1;whiteSpace=wrap;html=1;fontFamily=Helvetica;fontSize=19;fontColor=default;strokeColor=#00CC00;strokeWidth=5;arcSize=12;" parent="WIyWlLk6GJQsqaUBKTNV-1" vertex="1">
          <mxGeometry x="640" y="220" width="160" height="150" as="geometry" />
        </mxCell>
        <mxCell id="r62edw3LymITYhODbOyO-62" value="&lt;b style=&quot;&quot;&gt;&lt;font style=&quot;font-size: 14px;&quot;&gt;CONSENT&lt;/font&gt;&lt;br&gt;&lt;/b&gt;underpins the entire process - for treatment, investigation, genetics, approved research" style="rounded=1;whiteSpace=wrap;html=1;absoluteArcSize=1;arcSize=12;strokeWidth=5;fontFamily=Helvetica;fontSize=11;fontColor=default;strokeColor=#00CC00;" parent="WIyWlLk6GJQsqaUBKTNV-1" vertex="1">
          <mxGeometry x="10" y="270" width="110" height="110" as="geometry" />
        </mxCell>
        <mxCell id="qARzhaIOjMJ6qeckkKfJ-0" value="PHASE 2 PROCESS" style="label;whiteSpace=wrap;html=1;image=img/clipart/Gear_128x128.png;strokeWidth=4;" parent="WIyWlLk6GJQsqaUBKTNV-1" vertex="1">
          <mxGeometry x="210" y="160" width="390" height="60" as="geometry" />
        </mxCell>
        <mxCell id="6mQX39m_VKgBp-ftAS3a-1" style="edgeStyle=orthogonalEdgeStyle;rounded=1;orthogonalLoop=1;jettySize=auto;html=1;entryX=0.5;entryY=0;entryDx=0;entryDy=0;strokeColor=#00CC00;strokeWidth=3;" edge="1" parent="WIyWlLk6GJQsqaUBKTNV-1" source="6mQX39m_VKgBp-ftAS3a-0" target="r62edw3LymITYhODbOyO-49">
          <mxGeometry relative="1" as="geometry" />
        </mxCell>
        <mxCell id="6mQX39m_VKgBp-ftAS3a-0" value="MOLECULAR&lt;br&gt;TUMOUR&lt;br&gt;BOARD" style="text;html=1;align=center;verticalAlign=middle;resizable=0;points=[];autosize=1;strokeColor=#00CC00;fillColor=default;fontSize=11;strokeWidth=2;rounded=1;arcSize=12;" vertex="1" parent="WIyWlLk6GJQsqaUBKTNV-1">
          <mxGeometry x="705" y="890" width="90" height="50" as="geometry" />
        </mxCell>
      </root>
    </mxGraphModel>
  </diagram>
</mxfile>
